# xmcd
#
# Track frame offsets: 
#        150
#        11967
#        29020
#        47160
#        61820
#        72237
#        83920
#        102027
#        121255
#        123897
#        143590
#        162337
#        179792
#
# Disc length: 2656 seconds
#
# Revision: 8
# Processed by: cddbd v1.5.2PL0 Copyright (c) Steve Scherf et al.
# Submitted via: ExactAudioCopy v1.3
#
DISCID=b30a5e0d
DTITLE=The White Stripes - Get Behind Me Satan
DYEAR=2005
DGENRE=Alt. Rock
TTITLE0=Blue Orchid
TTITLE1=The Nurse
TTITLE2=My Doorbell
TTITLE3=Forever For Her (Is Over For Me)
TTITLE4=Little Ghost
TTITLE5=The Denial Twist
TTITLE6=White Moon
TTITLE7=Instinct Blues
TTITLE8=Passive Manipulation
TTITLE9=Take, Take, Take
TTITLE10=As Ugly As I Seem
TTITLE11=Red Rain
TTITLE12=I'm Lonely (But I Ain't That Lonely Yet)
EXTD=YEAR: 2005
EXTT0=
EXTT1=
EXTT2=
EXTT3=
EXTT4=
EXTT5=
EXTT6=
EXTT7=
EXTT8=
EXTT9=
EXTT10=
EXTT11=
EXTT12=
PLAYORDER=
